<svg xmlns="http://www.w3.org/2000/svg" xmlns:xlink="http://www.w3.org/1999/xlink" version="1.1" id="Layer_1" x="0px" y="0px" width="38" height="38" viewBox="40 -10 80 140" style="enable-background:new 0 0 559.3 101.3;" xml:space="preserve">
<style type="text/css">
	.st0{fill:#414042;}
</style>

	<g>
		<polygon class="st0" points="49.5,48.9 21.8,48.9 21.8,22 31.4,22 22.8,9.3 7.7,9.3 7.7,94 21.8,94 21.8,61.7 58.1,61.7   "/>
		<path class="st0" d="M89.8,58.3c2.7-1.2,5-2.9,7-5c2-2.1,3.5-4.5,4.6-7.4c1.1-2.9,1.6-6.2,1.6-9.9c0-8.3-2.5-14.8-7.5-19.5    c-5-4.8-12-7.1-21-7.1H31L39.7,22h31.5c11.7,0,17.5,4.6,17.5,13.9c0,4.2-1.4,7.4-4.2,9.7c-2.8,2.2-6.8,3.3-12.1,3.3H57.9l30.5,45    h15.4L81.1,61C84.2,60.4,87.1,59.5,89.8,58.3z"/>
	</g>

</svg>